<?xml version="1.0" standalone="no"?>
<!DOCTYPE svg PUBLIC "-//W3C//DTD SVG 20010904//EN"
 "http://www.w3.org/TR/2001/REC-SVG-20010904/DTD/svg10.dtd">
<svg version="1.0" xmlns="http://www.w3.org/2000/svg"
 width="695.000000pt" height="651.000000pt" viewBox="0 0 695.000000 651.000000"
 preserveAspectRatio="xMidYMid meet">
<metadata>
Created by potrace 1.16, written by Peter Selinger 2001-2019
</metadata>
<g transform="translate(0.000000,651.000000) scale(0.100000,-0.100000)"
fill="#000000" stroke="none">
<path d="M0 3255 l0 -3255 3475 0 3475 0 0 3255 0 3255 -3475 0 -3475 0 0
-3255z m3348 3128 c-16 -2 -40 -2 -55 0 -16 2 -3 4 27 4 30 0 43 -2 28 -4z
m180 0 c-27 -2 -69 -2 -95 0 -27 2 -5 3 47 3 52 0 74 -1 48 -3z m-355 -10 c-7
-2 -21 -2 -30 0 -10 3 -4 5 12 5 17 0 24 -2 18 -5z m530 0 c-7 -2 -21 -2 -30
0 -10 3 -4 5 12 5 17 0 24 -2 18 -5z m102 -123 c479 -56 881 -193 1286 -436
614 -369 1077 -949 1293 -1623 89 -274 124 -482 133 -778 l6 -193 -16 -6 c-9
-3 -34 -2 -54 3 l-38 10 3 13 c6 25 -19 366 -34 470 -17 119 -56 295 -78 355
-19 52 -20 33 -2 -31 20 -66 69 -325 63 -331 -3 -2 -11 27 -18 66 -6 39 -15
68 -19 66 -4 -2 -5 8 -3 23 l3 27 -9 -22 c-12 -27 -23 -31 -15 -5 2 9 -1 7 -8
-6 l-12 -24 12 -7 12 -7 -31 -18 -30 -18 17 -19 c10 -11 33 -27 51 -36 18 -8
33 -19 33 -23 0 -33 -189 121 -220 180 l-12 22 11 -6 c6 -4 11 -3 11 2 l0 10
65 -6 65 -5 0 12 c0 6 -8 11 -17 11 l-18 1 18 13 17 13 -32 7 c-46 9 -103 50
-139 98 -34 48 -28 56 25 34 20 -8 36 -11 36 -6 0 4 -6 11 -12 13 -7 3 1 6 18
6 17 1 37 7 43 15 l12 14 -45 22 c-56 27 -89 53 -116 90 l-21 30 18 -2 c10 0
29 0 43 0 l24 2 -45 48 c-52 54 -76 92 -109 175 -12 32 -24 56 -26 54 -3 -2
-11 -30 -19 -62 -20 -76 -73 -175 -101 -187 l-22 -11 -46 22 c-46 23 -116 91
-116 114 l1 12 13 -17 c7 -10 15 -15 19 -12 3 3 20 -2 37 -11 l32 -17 33 6
c29 6 74 41 64 50 -2 2 -26 15 -54 29 -64 32 -145 118 -145 154 l0 13 37 -20
c36 -19 83 -27 83 -14 0 3 -20 28 -45 56 -51 57 -95 145 -127 253 -12 41 -25
75 -28 75 -4 0 -12 -23 -18 -51 -7 -27 -26 -84 -43 -125 l-31 -75 -51 -55 -51
-56 15 -9 c19 -12 56 -11 80 1 l19 11 0 -11 c0 -16 -81 -100 -113 -116 l-28
-15 -57 16 c-188 55 -733 309 -939 438 -55 36 -165 112 -243 171 -77 58 -148
106 -157 106 -9 0 -79 -47 -155 -105 l-139 -106 -152 121 c-84 67 -186 150
-227 186 -41 35 -90 76 -107 90 l-33 26 -22 -6 c-13 -3 -96 -63 -184 -134
-173 -137 -275 -208 -419 -289 -103 -58 -272 -143 -327 -166 l-38 -16 -48 37
c-79 60 -102 80 -102 86 0 4 9 2 19 -4 11 -5 28 -7 38 -4 l18 6 -14 -10 -14
-10 39 -11 c21 -6 45 -11 52 -11 14 0 92 38 92 44 0 3 -29 20 -64 40 -57 32
-166 134 -166 156 0 5 12 2 28 -6 15 -7 42 -14 61 -14 l34 0 -65 68 -65 67
-36 75 c-20 41 -44 106 -54 143 -11 37 -23 68 -28 68 -4 0 -17 -33 -27 -73
-25 -101 -88 -223 -148 -287 l-50 -55 12 -8 c19 -11 40 -10 71 6 l27 15 0 -15
c0 -7 -28 -42 -62 -77 l-63 -64 -45 -16 c-25 -8 -37 -16 -28 -16 l17 -1 -5
-15 -6 -15 16 0 c9 0 16 -4 16 -10 0 -13 86 -13 111 0 62 34 -35 -87 -112
-139 -34 -23 -66 -41 -72 -41 -11 0 -77 59 -77 70 0 3 21 4 46 1 25 -2 50 1
56 7 l10 10 -47 46 c-50 50 -79 107 -114 225 -12 40 -24 71 -27 68 -3 -2 -13
-33 -23 -68 -25 -87 -74 -182 -122 -233 -21 -24 -39 -46 -39 -48 0 -14 46 -15
72 -2 l28 15 0 -13 c0 -23 -73 -110 -130 -156 -30 -25 -56 -48 -58 -52 -9 -23
73 -14 142 15 l18 8 -12 -22 c-20 -39 -124 -135 -158 -148 l-33 -12 -24 37
c-13 20 -32 65 -41 100 -10 34 -20 62 -24 62 -3 0 -14 -26 -24 -57 -26 -82
-59 -144 -106 -198 -22 -25 -40 -50 -40 -55 0 -5 20 -3 45 5 l46 13 -7 -21
c-9 -33 -56 -89 -95 -114 -19 -12 -43 -29 -54 -37 l-20 -15 14 -10 c7 -5 32
-8 54 -7 l40 2 -23 -18 -22 -18 30 3 c17 2 38 9 46 17 25 20 18 -4 -13 -47
-36 -50 -60 -67 -123 -90 -26 -9 -48 -21 -48 -26 0 -5 18 -16 40 -24 22 -9 40
-20 40 -24 0 -4 14 -3 32 2 17 5 33 7 36 5 2 -2 -4 -18 -13 -36 -16 -31 -77
-76 -135 -100 -46 -19 -26 -30 52 -30 l71 0 -25 -32 c-23 -30 -171 -138 -189
-138 -4 0 -9 8 -11 18 -3 9 -8 -70 -12 -175 l-8 -193 -39 -12 c-22 -6 -42 -8
-47 -4 -12 13 -7 383 7 496 76 617 352 1194 781 1634 172 177 298 283 480 405
421 282 914 456 1435 507 l140 13 210 -4 c116 -2 251 -9 300 -15z m2000 -830
c49 -49 87 -90 85 -90 -3 0 -46 41 -95 90 -49 50 -87 90 -85 90 3 0 46 -40 95
-90z m-4645 47 c0 -2 -12 -14 -27 -28 l-28 -24 24 28 c23 25 31 32 31 24z
m2169 -327 c159 -141 197 -180 176 -180 -9 0 -107 51 -147 76 -21 13 -40 24
-43 24 -11 0 -3 -32 25 -98 17 -39 30 -73 30 -76 0 -3 -22 10 -50 30 -51 36
-180 169 -180 185 0 19 -17 8 -35 -23 -21 -37 -144 -168 -157 -168 -12 0 -9
37 11 123 10 42 17 77 15 77 -3 0 -21 -11 -42 -24 -59 -37 -180 -96 -197 -96
-8 0 -15 5 -15 10 0 6 4 10 9 10 5 0 60 44 123 98 169 145 221 188 243 199
l19 11 17 -8 c9 -5 98 -82 198 -170z m740 -122 c69 -56 157 -127 195 -157 l69
-56 -16 -3 c-21 -4 -106 27 -187 68 -64 32 -75 36 -65 20 12 -19 42 -160 35
-160 -4 0 -34 19 -66 43 -63 47 -119 105 -136 143 l-11 23 -46 -23 c-50 -26
-117 -50 -168 -61 l-32 -6 77 74 c77 74 213 195 221 196 2 1 61 -45 130 -101z
m-1613 -185 c-8 -15 -15 -25 -16 -21 0 12 23 58 27 54 3 -2 -2 -17 -11 -33z
m193 -128 l26 -30 -28 25 c-27 23 -68 89 -67 107 1 4 10 -10 22 -32 11 -22 32
-53 47 -70z m-209 89 c0 -10 -113 -124 -123 -124 -6 0 18 29 54 64 68 68 69
69 69 60z m1032 -41 c-40 -2 -103 -2 -140 0 -37 2 -4 3 73 3 77 0 107 -2 67
-3z m131 -10 c-7 -2 -21 -2 -30 0 -10 3 -4 5 12 5 17 0 24 -2 18 -5z m-420
-10 c-7 -2 -21 -2 -30 0 -10 3 -4 5 12 5 17 0 24 -2 18 -5z m1297 -17 c25 -8
68 -24 95 -36 28 -13 106 -47 175 -76 69 -29 129 -59 134 -67 l10 -15 -18 -65
c-10 -36 -29 -81 -43 -99 l-25 -33 6 22 7 21 -28 20 c-15 10 -39 25 -51 31
l-24 13 6 -24 c4 -12 -3 -5 -15 16 -11 21 -33 49 -49 62 -29 25 -235 244 -229
244 2 0 24 -6 49 -14z m-790 -64 c167 -39 333 -106 485 -196 281 -167 532
-407 683 -653 31 -51 60 -93 63 -93 3 0 11 18 18 40 l12 41 47 29 c26 16 53
30 59 30 19 0 26 46 15 93 l-11 43 15 59 c9 33 22 72 30 87 l14 27 -36 17
c-30 14 -65 50 -87 90 l-6 11 30 1 c46 1 47 10 8 45 -20 18 -43 43 -51 57 -22
37 -58 150 -48 150 5 0 11 -4 15 -9 3 -5 22 -15 43 -22 20 -6 63 -25 96 -40
32 -16 68 -29 80 -29 l21 0 -15 10 -15 10 22 0 c32 0 53 -10 53 -26 l0 -14 25
0 c14 0 42 -7 62 -15 19 -8 46 -15 59 -15 l25 0 -16 -30 c-18 -35 -52 -54
-132 -75 l-58 -15 -17 -21 c-10 -12 -18 -28 -18 -36 l0 -15 23 7 c12 4 45 13
72 22 l50 14 64 -5 63 -5 44 -26 c54 -32 90 -83 105 -151 l12 -52 -17 -52 -17
-52 12 -14 c6 -8 36 -28 66 -45 l54 -31 24 -37 c26 -40 43 -116 79 -360 14
-89 28 -166 32 -170 4 -3 4 6 2 22 -3 15 -2 27 2 27 15 0 52 -106 58 -162 2
-32 8 -58 11 -58 3 0 25 27 48 58 l42 58 50 28 c28 15 51 24 51 20 0 -11 -72
-178 -81 -188 -5 -6 -9 -15 -9 -22 0 -6 16 3 36 21 45 42 137 91 192 103 23 6
42 8 42 5 0 -2 -29 -42 -65 -89 -36 -47 -65 -89 -65 -94 0 -5 35 9 78 30 l77
39 53 7 52 7 0 -10 c0 -5 -23 -29 -51 -53 -27 -23 -49 -44 -47 -45 2 -2 30 6
63 17 l60 20 38 -5 c45 -6 77 -32 77 -61 l-1 -21 -35 -27 -36 -27 -27 4 c-14
2 -59 7 -100 10 -41 3 -79 9 -85 14 -6 5 -25 12 -43 15 l-32 7 -20 -20 -21
-21 -15 6 c-8 3 -12 10 -9 15 3 5 1 9 -4 9 -5 0 -12 10 -16 23 l-6 22 -19 -25
-19 -24 -19 17 -19 17 -23 -16 -23 -16 -8 8 c-5 5 -10 20 -12 34 l-3 25 -22
-24 -21 -23 -64 8 c-35 5 -77 7 -94 5 l-31 -2 4 25 c3 14 13 28 23 31 10 3 30
15 44 26 l26 20 0 37 c0 20 -13 115 -29 212 -17 96 -41 242 -55 323 l-24 148
-17 19 c-9 10 -42 32 -74 49 -32 17 -63 37 -70 44 -14 18 -16 54 -3 93 13 43
7 98 -19 151 l-22 45 -45 29 -46 29 -75 0 -76 0 -35 -18 c-19 -9 -49 -36 -67
-60 l-33 -44 0 -45 0 -46 15 -17 15 -17 -14 -29 c-8 -16 -20 -42 -25 -57 l-11
-28 -54 -24 c-30 -13 -60 -34 -66 -45 -6 -11 -19 -59 -30 -106 -17 -79 -26
-104 -33 -93 -1 2 -19 29 -39 60 -94 146 -410 483 -581 620 -54 44 -102 79
-106 79 -19 0 -140 -99 -237 -192 -55 -54 -103 -96 -105 -93 -3 2 -39 -30 -80
-72 -40 -42 -65 -70 -54 -62 l20 14 -14 -17 c-7 -10 -17 -16 -20 -13 -11 6
-93 -80 -84 -89 5 -4 1 -6 -7 -4 -8 2 -14 -2 -15 -9 0 -16 -12 -26 -35 -30
-28 -4 -26 2 24 55 24 26 68 77 97 113 30 37 100 121 157 187 56 66 102 123
102 126 0 9 -474 -234 -482 -247 -11 -17 -10 105 3 268 16 204 15 261 -5 346
l-17 77 -35 -1 -35 -1 7 -16 c4 -8 14 -37 22 -65 l15 -50 1 -215 c1 -217 -8
-335 -24 -325 -5 3 -37 -15 -72 -40 -34 -25 -70 -45 -79 -45 -9 0 -86 15 -171
34 -84 19 -183 40 -220 47 -37 7 -72 15 -77 19 l-10 6 15 44 c9 25 30 72 47
105 l31 60 83 83 c45 46 75 81 65 77 -9 -4 -44 -18 -77 -30 -33 -13 -109 -46
-169 -74 -59 -28 -111 -51 -114 -51 -11 0 52 61 121 117 l67 55 0 19 0 18 83
41 c45 22 71 38 57 35 -46 -11 -229 -105 -312 -161 -101 -68 -129 -83 -145
-77 -25 9 -12 32 40 76 165 139 418 261 644 311 l68 15 170 -4 170 -4 85 -19z
m-2069 3 l77 0 -21 -30 c-28 -42 -89 -105 -101 -105 -5 0 -1 7 10 14 l19 15
-22 23 c-12 13 -37 41 -55 62 l-33 39 25 -9 c14 -5 59 -9 101 -9z m1219 -20
c-14 -8 -29 -14 -35 -14 -5 0 1 6 15 14 14 8 30 14 35 14 6 0 -1 -6 -15 -14z
m-450 -4 c0 -17 -40 -59 -70 -71 l-30 -13 11 -13 c6 -8 18 -14 25 -14 l14 0
-12 -25 c-6 -14 -14 -25 -18 -25 -7 0 -90 95 -105 119 l-8 14 10 -6 c6 -4 19
0 29 8 l19 14 -40 2 -40 2 65 7 c102 10 150 11 150 1z m254 -31 c35 -53 33
-62 -4 -15 -27 34 -37 55 -26 55 2 0 15 -18 30 -40z m-1070 -175 c10 -15 16
-29 13 -31 -2 -3 -12 8 -22 23 -10 15 -26 34 -34 41 l-16 13 21 -10 c12 -6 29
-22 38 -36z m2854 -39 c3 -5 -16 6 -42 24 -26 19 -50 39 -54 44 -3 5 16 -6 42
-24 26 -19 50 -39 54 -44z m-2472 38 l64 -25 53 6 c56 7 155 -6 227 -30 l45
-14 -120 5 -120 6 -45 -11 -44 -10 -60 30 -61 29 -78 0 -78 0 -36 -15 c-48
-20 -54 -19 -43 10 l9 24 -17 10 -17 10 128 1 129 0 64 -26z m2694 -62 c0 -5
-7 -17 -15 -28 l-15 -19 11 28 c12 27 19 34 19 19z m-3136 -8 l16 -6 -34 -42
c-39 -48 -76 -117 -76 -143 l0 -18 -8 13 -9 13 -121 2 -122 3 -4 -10 c-2 -6
-5 -2 -5 9 -1 11 8 37 19 58 11 20 20 42 20 48 l0 10 -29 -17 c-35 -21 -66
-73 -80 -134 l-10 -44 11 -51 c6 -27 17 -62 24 -77 14 -28 79 -68 109 -68 22
0 19 -6 -20 -54 -19 -23 -47 -69 -62 -102 l-28 -59 0 -116 0 -116 -43 -43
c-24 -23 -56 -67 -70 -98 l-27 -57 1 -120 1 -120 24 -72 25 -72 -19 11 c-11 6
-37 8 -59 5 l-38 -5 -16 16 -16 16 -10 -17 c-11 -21 -25 -22 -30 -2 l-3 15
-27 -14 c-15 -8 -40 -17 -57 -21 l-31 -7 0 16 c0 9 -4 16 -10 16 -5 0 -7 -6
-4 -14 l5 -13 -23 -7 c-13 -3 -74 -6 -136 -6 l-113 0 6 -10 c3 -5 2 -10 -3
-10 -15 0 -23 42 -11 56 15 18 113 37 149 29 l30 -7 0 11 c0 6 -7 11 -16 11
-8 0 -35 12 -60 26 l-45 26 13 15 12 14 50 -6 c28 -4 64 -14 79 -22 39 -20 46
-9 15 25 -37 40 -58 74 -58 94 l0 18 21 0 c30 0 57 -16 126 -77 35 -30 63 -52
63 -49 0 2 -9 21 -21 40 -11 20 -29 63 -39 96 l-18 60 18 0 c20 0 110 -76 110
-94 0 -7 7 -21 15 -32 l16 -19 -5 50 c-7 58 6 121 22 118 7 -2 12 1 12 7 0 30
69 149 117 201 l56 60 -12 25 c-6 14 -11 51 -11 83 l0 57 21 62 c11 34 32 78
45 98 14 20 24 37 22 38 -2 2 -17 12 -34 24 -18 12 -42 43 -55 69 l-23 48 0
75 0 75 23 50 c42 93 107 140 215 154 76 10 219 13 240 5z m346 -26 c52 -5 96
-11 97 -12 1 -1 -11 -17 -28 -36 -29 -34 -69 -125 -69 -156 l0 -16 -16 6 c-9
4 -72 11 -138 16 -67 6 -136 14 -153 19 -17 5 -35 6 -38 3 -13 -12 7 62 27
103 11 22 32 52 46 68 l26 27 76 -5 c41 -4 118 -11 170 -17z m2910 -27 c25
-50 38 -58 55 -35 7 11 17 15 21 11 4 -4 -2 -17 -14 -29 l-21 -21 -16 13 c-15
12 -55 81 -55 95 0 14 12 1 30 -34z m-2415 -10 l60 -20 37 -41 37 -41 10 -48
10 -48 -10 -37 c-13 -46 -19 -47 -12 -2 6 41 -3 86 -18 86 -6 0 -8 -3 -6 -7 3
-5 1 -26 -3 -48 l-8 -40 -1 54 -1 53 -34 34 -34 34 -31 0 -31 0 -40 -36 -39
-36 -7 -33 -6 -34 -37 4 c-20 3 -65 9 -101 15 -36 6 -77 13 -92 15 l-27 4 -4
-17 c-3 -9 -5 -3 -6 14 -1 37 25 128 46 161 23 34 66 43 183 38 l105 -4 60
-20z m1937 -135 c186 -166 402 -406 542 -599 l79 -108 -7 -47 c-4 -26 -15
-121 -26 -212 -10 -91 -22 -173 -25 -183 l-7 -17 33 0 c19 0 48 -9 66 -19 l31
-20 -1 -57 -2 -57 -41 -12 c-23 -7 -63 -15 -90 -19 -27 -3 -67 -13 -89 -21
l-40 -14 20 -1 c85 -6 129 -13 265 -40 l155 -32 170 -5 170 -6 101 21 c55 12
117 28 137 37 20 8 62 15 92 15 l56 0 -6 9 -5 10 34 -2 c19 -1 32 -5 31 -8 -2
-3 37 -6 88 -8 51 -1 106 -4 123 -7 18 -3 58 -1 89 6 31 6 59 10 61 7 7 -7
-250 -55 -421 -79 l-150 -21 -780 -2 c-429 -2 -751 1 -715 5 36 4 115 9 175
10 61 2 94 5 75 7 -19 2 -44 8 -56 14 -11 6 -24 9 -30 8 -20 -3 -35 1 -30 10
10 16 -18 29 -94 46 -105 24 -168 33 -221 34 l-45 1 -27 28 c-15 15 -27 31
-27 34 0 3 33 10 73 17 311 49 398 62 512 75 72 8 164 18 206 21 l76 6 2 136
2 135 -18 -6 c-27 -7 -134 -26 -153 -26 l-16 0 -53 136 c-109 279 -249 520
-401 693 l-81 91 7 12 c4 6 -4 3 -17 -7 l-25 -18 -86 -176 c-85 -172 -121
-273 -152 -423 -20 -96 -46 -278 -46 -316 0 -17 -3 -33 -7 -35 -11 -7 -354
-60 -357 -55 -2 1 1 84 6 183 l9 180 248 250 c136 138 276 283 312 324 59 69
183 181 200 181 4 0 49 -38 101 -84z m1404 59 c14 -7 22 -15 17 -18 -5 -3 -22
5 -39 19 -16 14 -23 23 -16 19 6 -3 24 -12 38 -20z m156 -41 c15 -8 34 -14 42
-14 31 0 26 -21 -9 -36 -21 -8 -39 -13 -42 -11 -2 3 11 10 29 16 l33 12 -44
19 c-24 11 -53 20 -65 21 -11 0 -30 4 -41 9 l-20 9 45 -6 c25 -3 57 -12 72
-19z m-3471 -14 c27 -21 20 -27 -11 -8 l-19 12 -26 -14 c-14 -7 -29 -27 -34
-44 -5 -17 -10 -23 -10 -14 -2 27 20 65 43 76 29 15 31 14 57 -8z m3389 -123
c0 -6 -7 -3 -15 8 -8 11 -31 37 -50 57 -19 20 -35 42 -35 48 0 5 23 -15 50
-45 28 -30 50 -61 50 -68z m-390 93 c43 -12 96 -64 106 -104 l7 -29 -24 7
c-13 4 -56 9 -96 13 l-72 6 -61 -12 c-34 -7 -64 -11 -66 -9 -2 2 1 21 7 41
l10 36 27 19 c55 39 104 48 162 32z m-3873 -72 c-2 -13 -4 -5 -4 17 -1 22 1
32 4 23 2 -10 2 -28 0 -40z m3535 45 l-33 -4 7 -21 6 -21 -10 7 c-5 3 -12 15
-15 26 l-5 20 41 -2 42 -1 -33 -4z m834 -84 c30 -17 54 -33 54 -35 0 -5 -47
18 -94 47 -51 31 -18 22 40 -12z m-75 -25 l24 -27 -21 11 c-25 13 -50 42 -37
42 5 0 20 -12 34 -26z m-2011 -39 c-24 -25 -46 -45 -49 -45 -3 0 15 20 39 45
24 25 46 45 49 45 3 0 -15 -20 -39 -45z m-1360 32 c0 -2 -12 -14 -27 -28 l-28
-24 24 28 c23 25 31 32 31 24z m957 -74 c-3 -10 -5 -4 -5 12 0 17 2 24 5 18 2
-7 2 -21 0 -30z m2095 -3 c-2 -19 -5 -37 -7 -39 -2 -2 -17 6 -33 18 -17 12
-36 21 -44 21 l-13 0 15 10 15 10 -35 0 -35 0 14 9 c8 5 39 8 70 7 l56 -1 -3
-35z m486 6 c33 -17 66 -52 55 -59 -20 -12 -74 -18 -107 -12 l-35 7 -36 33
c-48 46 -44 56 5 11 l40 -36 55 0 c30 0 55 4 55 9 0 15 -52 52 -82 58 -16 3
-28 9 -28 14 0 9 32 -1 78 -25z m-4018 -15 l25 -12 -65 7 c-36 4 -137 10 -225
14 l-160 8 200 -3 200 -3 25 -11z m-47 -22 l18 0 -23 -29 c-23 -29 -46 -41
-32 -17 25 41 -47 -40 -82 -94 -24 -36 -56 -74 -71 -84 l-28 -18 38 36 c20 19
37 39 37 45 0 12 -53 19 -214 28 l-128 7 -9 -14 -9 -14 0 23 c0 34 25 88 55
118 l27 27 202 -7 c110 -4 209 -7 219 -7z m1544 -51 c-2 -13 -4 -5 -4 17 -1
22 1 32 4 23 2 -10 2 -28 0 -40z m-70 -5 c-3 -10 -5 -2 -5 17 0 19 2 27 5 18
2 -10 2 -26 0 -35z m-1457 -32 c0 -14 -7 -51 -15 -81 -8 -30 -15 -63 -15 -72
l0 -18 23 0 23 0 33 81 c18 44 44 92 58 107 l24 27 -21 -31 c-12 -17 -37 -69
-55 -115 l-34 -84 -33 4 c-18 1 -34 4 -36 6 -2 1 4 31 13 66 9 35 15 84 13
110 l-3 47 13 -10 c6 -6 12 -22 12 -37z m-57 -32 l-7 -24 -6 25 -6 25 -17 -30
c-9 -16 -16 -26 -17 -21 0 5 10 24 21 43 l22 35 8 -14 c4 -8 5 -25 2 -39z
m668 -74 c42 -92 65 -176 80 -302 12 -95 6 -261 -12 -311 l-11 -31 -31 6 c-18
3 -33 6 -33 7 -1 1 2 26 7 56 23 159 3 343 -56 521 l-37 111 11 25 11 25 17
-13 c9 -8 33 -50 54 -94z m2990 95 l19 -11 -2 -29 c-2 -30 -13 -40 -20 -19 -2
6 -25 13 -51 16 -26 3 -47 9 -47 14 0 4 -7 15 -16 23 l-15 16 56 0 c31 0 65
-5 76 -10z m-3381 -57 c-18 -20 -41 -55 -51 -77 l-18 -41 22 -6 22 -6 -17 -7
c-9 -4 -24 -6 -32 -4 l-15 3 24 60 c14 33 38 72 55 88 43 38 48 34 10 -10z
m775 2 c141 -28 290 -92 391 -169 l43 -33 -40 -51 c-21 -29 -78 -110 -126
-180 -47 -70 -89 -131 -93 -135 -4 -4 -86 8 -182 28 -97 19 -179 35 -182 35
-3 0 -6 48 -6 106 0 106 -23 329 -40 393 l-9 34 87 -7 c48 -4 119 -14 157 -21z
m2717 2 l16 -13 11 -59 c18 -102 73 -567 67 -573 -3 -3 -6 8 -7 24 l-1 29 -7
-25 -7 -25 -18 135 c-10 74 -24 180 -32 235 -8 55 -19 132 -23 171 -5 39 -14
80 -20 92 -13 24 -5 28 21 9z m-2072 0 c0 -2 -17 -19 -37 -38 l-38 -34 34 38
c33 34 41 42 41 34z m2366 -12 c19 -8 70 -50 113 -94 l79 -79 -15 -6 c-8 -3
-37 -6 -64 -6 l-50 0 -55 51 c-30 29 -54 55 -54 59 0 5 24 -14 53 -41 l52 -49
23 0 22 0 0 15 c0 8 5 15 11 15 6 0 -6 20 -26 45 -20 24 -40 43 -43 42 -4 -1
-8 3 -10 8 -4 12 -42 34 -60 35 l-13 0 15 -22 c9 -12 16 -32 16 -43 l-1 -20
-19 39 c-11 21 -24 44 -31 52 l-11 14 16 0 c9 0 32 -7 52 -15z m-436 -80 l0
-35 -12 0 c-7 0 -26 11 -43 24 l-30 24 15 5 c8 3 22 8 30 10 8 3 21 6 28 6
l12 1 0 -35z m849 20 c2 -3 -32 -5 -77 -5 -44 0 -83 3 -86 8 -5 8 155 5 163
-3z m-45 -87 c22 -11 49 -27 58 -35 9 -8 22 -12 27 -8 l11 6 0 -26 0 -26 -22
24 c-13 13 -56 43 -97 68 -41 24 -77 51 -79 59 l-5 14 33 -27 c18 -15 51 -37
74 -49z m-4924 37 l0 -25 -55 0 -55 0 0 19 c0 22 16 28 73 30 l37 1 0 -25z
m310 10 l-12 -15 -62 2 -61 2 60 3 c33 2 64 8 70 14 15 15 19 10 5 -6z m141 5
c10 -6 19 -19 19 -30 l0 -20 -62 7 c-35 3 -65 8 -68 10 -3 3 6 13 19 24 26 21
62 24 92 9z m-358 -7 c-7 -2 -21 -2 -30 0 -10 3 -4 5 12 5 17 0 24 -2 18 -5z
m3663 -60 c-3 -21 -13 -74 -21 -118 -17 -96 -31 -302 -21 -338 3 -15 16 -36
29 -48 l22 -22 -48 7 c-27 3 -53 9 -59 12 l-11 7 7 90 c7 93 27 247 47 375
l12 72 25 0 25 0 -7 -37z m472 -35 c18 -123 62 -411 67 -444 l5 -31 -28 -12
c-34 -14 -92 -11 -92 5 0 6 7 17 15 24 7 6 17 31 20 54 7 44 -19 340 -35 411
l-9 40 16 13 c9 6 20 12 23 12 4 0 12 -33 18 -72z m-4234 18 l-6 -26 -27 -1
-26 -1 25 -9 25 -9 -40 6 c-50 7 -55 11 -55 35 l0 19 35 1 c47 2 52 3 61 12
12 12 15 1 8 -27z m304 9 c2 -2 0 -24 -4 -50 l-7 -47 -126 7 c-69 4 -129 9
-133 12 -5 2 -8 21 -8 42 0 21 3 41 8 45 6 7 262 -2 270 -9z m165 -24 l-5 -19
-51 -4 c-61 -5 -69 -2 -36 11 l24 10 -22 0 c-46 2 -21 20 30 23 64 4 66 3 60
-21z m-1093 16 c0 -2 -9 -12 -20 -22 l-21 -19 6 16 7 16 -24 5 -23 4 38 2 c20
0 37 -1 37 -2z m1568 -9 c7 -7 12 -24 12 -39 l0 -26 -131 -7 c-72 -4 -133 -5
-135 -3 -3 2 -2 23 2 46 l7 41 116 0 117 0 12 -12z m3199 -58 c7 -36 12 -74
13 -86 l0 -21 -105 -89 c-239 -202 -237 -200 -269 -168 l-16 15 0 67 c0 80 29
310 42 335 l9 18 157 -3 157 -3 12 -65z m-510 13 c-3 -10 -5 -4 -5 12 0 17 2
24 5 18 2 -7 2 -21 0 -30z m-3078 -60 c0 -49 -7 -146 -14 -218 l-14 -130 7
135 c3 74 7 168 7 209 l0 74 -11 4 -12 4 -7 -48 c-4 -26 -13 -61 -21 -78 l-14
-30 -2 -125 -3 -124 -9 42 -9 42 11 98 c6 53 19 127 28 165 l18 67 23 0 23 0
-1 -87z m-564 27 c-3 -5 -15 -10 -25 -10 l-19 0 5 -14 6 -15 -20 6 c-11 3 -22
13 -25 24 l-5 19 45 0 44 0 -6 -10z m461 -14 c-3 -12 -6 -24 -6 -28 0 -9 -62
-11 -84 -2 -9 3 -16 17 -16 30 l0 25 56 -2 56 -2 -6 -21z m3182 -96 l0 -35 -9
40 c-4 22 -8 58 -7 80 l1 40 8 -45 c4 -25 7 -61 7 -80z m-1673 -72 c-10 -84
-21 -156 -24 -160 -6 -7 -118 6 -148 17 l-13 4 98 150 c53 82 99 147 100 146
2 -2 -4 -73 -13 -157z m-1656 115 l12 -26 -6 -56 c-4 -31 -9 -64 -11 -73 l-5
-18 -57 0 c-31 0 -94 3 -139 7 l-83 6 0 83 c0 45 2 88 5 96 l5 13 134 -3 133
-3 12 -26z m574 30 c-7 -2 -21 -2 -30 0 -10 3 -4 5 12 5 17 0 24 -2 18 -5z
m-138 -13 c-3 -5 -16 -10 -28 -9 l-22 1 25 8 c14 4 26 8 28 9 2 1 0 -3 -3 -9z
m263 -22 c7 -7 12 -31 12 -55 l0 -42 -63 -20 c-73 -22 -213 -45 -226 -37 -13
9 -45 95 -38 103 5 5 139 33 267 56 14 2 27 5 31 6 3 0 10 -4 17 -11z m-1252
-40 c-3 -13 -6 -50 -7 -83 -1 -33 -4 -47 -6 -31 l-5 28 -20 6 -20 5 6 30 c6
32 32 67 49 67 5 0 7 -10 3 -22z m3872 -83 l-1 -30 -8 45 c-4 25 -7 56 -7 70
l0 25 9 -40 c4 -22 8 -53 7 -70z m551 -46 l1 -65 -14 -19 c-7 -10 -33 -24 -57
-32 -47 -14 -209 -18 -209 -5 -1 4 59 64 132 134 l133 126 7 -36 c4 -21 7 -67
7 -103z m-3649 97 c0 -19 -5 -38 -10 -41 l-11 -7 2 41 c3 50 19 55 19 7z
m3083 -182 l-6 -81 -19 5 -19 4 5 17 c3 9 11 63 18 121 l12 105 8 -45 c4 -25
4 -82 1 -126z m-2555 109 l-3 -28 -145 -27 c-177 -33 -170 -33 -169 -5 l1 22
5 -18 5 -18 13 5 c8 3 42 10 77 16 35 6 87 16 117 21 l54 11 -13 8 c-7 5 -19
6 -27 3 -7 -3 -13 0 -13 6 0 10 49 28 83 30 l18 1 -3 -27z m-9 -120 c0 -16 -4
-37 -9 -48 l-9 -20 6 43 6 44 -79 -5 -79 -5 45 8 c25 4 62 8 83 8 l37 2 -1
-27z m2129 5 c11 -13 25 -35 31 -50 l10 -27 -27 -5 c-97 -19 -233 -37 -244
-33 -7 3 -2 6 12 7 14 1 34 6 45 11 l20 9 -60 -5 c-33 -3 -80 -10 -105 -15
-25 -6 -112 -19 -195 -30 -82 -12 -158 -23 -167 -26 l-18 -5 0 45 0 45 33 5
c17 2 106 14 197 26 91 12 215 32 275 45 61 13 124 23 141 24 l31 1 21 -22z
m-2325 -5 c-13 -2 -35 -2 -50 0 -16 2 -5 4 22 4 28 0 40 -2 28 -4z m-688 -21
c94 -5 186 -8 205 -8 l35 1 8 -59 c5 -32 7 -59 5 -60 -11 -7 -448 15 -471 23
l-27 11 0 35 0 35 21 21 20 20 17 -5 c9 -3 94 -10 187 -14z m2758 -99 c-7 -2
-21 -2 -30 0 -10 3 -4 5 12 5 17 0 24 -2 18 -5z m-300 -50 c-7 -2 -21 -2 -30
0 -10 3 -4 5 12 5 17 0 24 -2 18 -5z m1616 -92 l-1 -36 -5 20 c-2 11 -8 36
-13 55 l-9 35 14 -19 c8 -11 14 -36 14 -55z m-3355 49 c38 -6 96 -22 128 -37
l59 -26 40 -45 c89 -101 74 -240 -41 -394 -116 -155 -364 -290 -564 -306 l-81
-7 -33 -115 c-18 -63 -40 -131 -50 -150 l-17 -35 -38 -18 c-21 -11 -65 -21
-97 -24 l-60 -6 -20 18 c-11 10 -20 25 -20 33 0 13 133 462 224 757 l33 110
25 18 25 19 77 11 76 11 27 -10 28 -9 3 -20 c1 -11 -28 -117 -66 -235 -38
-118 -67 -218 -65 -222 6 -11 125 22 177 50 28 14 78 54 111 87 l60 60 35 70
34 70 1 62 0 62 -29 30 c-16 17 -45 36 -65 43 l-36 13 -100 -1 -100 -1 -85
-22 c-47 -12 -132 -45 -189 -74 l-104 -51 -63 -62 -63 -62 -12 -42 -13 -42 11
-16 c5 -10 25 -22 44 -29 l34 -11 -3 -14 c-9 -43 -112 -84 -188 -75 l-46 5
-30 30 -30 30 -5 46 -6 46 17 43 c8 23 37 68 63 99 195 234 643 387 987 338z
m3243 -47 c-3 -10 -5 -2 -5 17 0 19 2 27 5 18 2 -10 2 -26 0 -35z m-2311 -48
c32 -14 55 -27 53 -30 -3 -2 -32 9 -64 25 -74 36 -66 39 11 5z m-335 -44 l29
-29 0 -35 0 -34 -22 -33 c-44 -63 -118 -85 -183 -55 -74 36 -70 148 7 195 l33
20 53 0 54 0 29 -29z m1005 -5 l34 -34 0 -32 c0 -74 -67 -130 -155 -130 l-47
0 -30 30 -31 31 6 41 c10 75 72 128 151 128 l38 0 34 -34z m-2678 -12 c39 -16
40 -28 7 -50 l-26 -17 -57 7 c-104 11 -273 38 -268 43 2 2 65 -3 140 -11 74
-9 153 -16 176 -16 l40 0 0 14 c0 23 -57 36 -164 37 -56 1 -114 5 -131 8 -16
4 33 5 110 3 l140 -4 33 -14z m2151 10 c9 -8 -45 -2 -64 6 l-20 10 40 -7 c22
-3 42 -7 44 -9z m-2554 -9 c67 -17 36 -18 -40 -1 -33 8 -49 14 -35 14 14 0 48
-6 75 -13z m2728 -2 c-23 -2 -64 -2 -90 0 -26 2 -7 3 42 3 50 0 71 -1 48 -3z
m15 -35 c-20 -29 -46 -36 -138 -36 l-75 1 95 8 95 7 14 21 c7 12 16 21 18 21
3 0 -1 -10 -9 -22z m-3000 -27 c141 -30 354 -64 500 -80 46 -5 85 -11 88 -14
4 -3 -12 -45 -32 -85 -1 -1 -43 2 -95 8 -259 29 -655 119 -706 162 l-14 12 23
12 c35 20 85 17 236 -15z m6174 11 l11 -11 -49 -21 c-73 -32 -290 -86 -459
-115 -135 -23 -570 -75 -620 -74 l-20 0 -22 44 -22 44 32 5 c18 3 111 12 207
21 217 19 560 68 705 100 l110 24 58 -3 c31 -1 62 -7 69 -14z m-3449 -29 c-18
-2 -48 -2 -65 0 -18 2 -4 4 32 4 36 0 50 -2 33 -4z m887 -7 c0 -2 -15 -6 -34
-8 -19 -2 -32 0 -30 4 5 8 64 12 64 4z m-768 -158 c22 -6 48 -23 59 -36 l19
-25 0 -36 c0 -20 -20 -97 -45 -171 -49 -147 -53 -168 -29 -177 l15 -6 30 29
29 28 12 -12 11 -11 -13 -30 c-6 -17 -33 -50 -60 -75 l-47 -44 -55 -11 c-64
-14 -103 -7 -135 22 l-23 20 0 48 0 47 44 134 45 133 -9 9 -9 9 -25 -16 c-66
-44 -196 -249 -217 -343 l-12 -54 -36 -10 c-45 -12 -73 -13 -104 -1 -32 12
-41 40 -28 87 l10 37 -52 -56 c-29 -31 -72 -65 -97 -76 l-45 -21 -61 0 -62 0
-23 19 -24 19 1 64 1 63 51 165 c29 91 52 184 52 206 l0 42 16 6 c9 3 40 9 70
12 l53 7 30 -13 c55 -22 54 -50 -16 -267 -45 -141 -48 -173 -18 -173 27 0 106
82 136 141 37 74 69 190 69 251 l0 47 42 12 c107 28 179 -19 157 -103 -4 -16
-6 -28 -3 -28 2 0 20 18 40 40 40 44 88 77 143 96 46 17 64 17 113 2z m2011
-28 l29 -33 -5 -56 c-3 -31 -26 -120 -52 -199 l-48 -143 10 -10 9 -9 48 32
c51 33 90 79 159 188 l42 65 25 0 24 0 13 -25 13 -25 -6 -30 c-3 -16 -20 -56
-37 -88 l-30 -57 -68 -64 -67 -64 -64 -31 c-113 -56 -217 -64 -269 -23 l-22
18 -4 50 -5 49 50 149 c28 82 48 154 46 158 -29 46 -226 -260 -241 -373 l-6
-41 -24 -9 c-13 -5 -46 -9 -73 -9 l-49 0 -21 22 c-11 12 -20 29 -20 38 0 23
36 149 77 267 l36 104 -10 10 -11 11 -20 -13 c-51 -32 -201 -296 -217 -381
l-7 -38 -37 -10 c-45 -12 -73 -13 -105 -1 -29 11 -34 30 -25 89 l6 43 -46 -47
c-47 -48 -109 -83 -147 -84 -12 0 -35 5 -53 11 l-32 11 -14 29 c-8 15 -15 42
-15 60 l0 31 -41 -42 c-46 -47 -106 -77 -172 -86 l-44 -6 -46 20 -46 20 -15
31 c-22 41 -20 106 4 184 l20 65 43 59 c58 78 140 151 206 181 l54 25 66 5
c86 6 143 -11 192 -55 l41 -37 -5 -25 c-3 -14 -19 -73 -36 -131 -17 -58 -31
-124 -31 -146 l0 -42 16 -6 17 -6 33 25 c18 14 44 49 57 77 34 71 79 241 75
280 l-3 32 25 13 c34 17 105 16 140 -2 l30 -16 0 -34 c0 -18 -4 -45 -10 -59
l-9 -25 62 62 c70 72 117 97 177 97 54 0 94 -22 110 -59 l12 -31 -6 -35 -7
-34 57 59 c31 33 80 71 108 85 l51 26 54 -4 54 -4 30 -33z m-1633 15 c16 -8
31 -23 35 -34 11 -34 -90 -387 -146 -510 -73 -161 -188 -300 -285 -343 -26
-11 -73 -23 -105 -25 l-58 -6 -53 26 c-52 26 -138 99 -138 118 0 14 81 11 136
-6 27 -8 65 -15 85 -15 l37 0 54 59 c62 66 119 171 172 314 55 147 107 335
104 376 l-3 35 40 12 c55 17 91 17 125 -1z m400 -656 c91 -5 241 -19 333 -29
93 -11 175 -20 183 -20 8 0 14 -6 14 -14 0 -24 -64 -72 -114 -86 l-48 -13 -77
12 c-240 39 -415 62 -561 71 -249 17 -250 17 -236 76 l7 26 167 -6 c92 -4 241
-11 332 -17z m-856 -11 c-3 -13 -13 -30 -20 -39 l-14 -16 -154 -7 c-284 -13
-614 -54 -885 -112 -90 -20 -185 -38 -211 -41 l-47 -5 -8 12 -7 11 22 24 c79
84 461 159 955 188 28 2 123 4 213 5 l163 2 -7 -22z m-2282 -308 l57 -11 95
-113 c194 -230 455 -456 711 -616 188 -118 436 -237 602 -289 l81 -26 -36 -39
-36 -40 -115 39 c-154 52 -454 203 -621 312 -321 211 -637 516 -805 776 l-18
27 14 -4 c8 -3 40 -10 71 -16z m4991 -11 c-32 -54 -178 -231 -274 -333 -317
-335 -779 -626 -1215 -766 -92 -29 -114 -31 -114 -8 0 5 -9 22 -20 38 l-20 27
63 18 c216 59 552 226 782 388 213 151 446 365 592 545 42 51 85 94 97 97 66
16 102 23 114 24 l13 1 -18 -31z m-3725 -10 l43 -18 -27 -50 -26 -51 -28 15
c-16 8 -45 15 -64 15 l-36 0 -32 -29 -32 -29 -4 -69 -4 -69 28 -33 28 -33 60
4 c34 3 67 7 75 9 l13 4 13 -49 12 -48 -33 -14 c-19 -8 -66 -15 -104 -16 l-69
-1 -48 25 -48 24 -30 43 -30 43 -3 86 -3 87 28 55 28 55 40 28 c71 49 164 55
253 16z m2602 20 c24 -5 50 -15 56 -20 l12 -10 -15 -45 -15 -45 -21 7 c-11 3
-41 7 -67 7 l-48 1 -27 -18 c-15 -10 -34 -34 -42 -54 l-15 -36 4 -55 5 -54 27
-24 c26 -22 68 -29 100 -17 l16 6 0 39 0 39 -35 0 -35 0 0 39 c0 22 3 42 8 44
4 3 46 8 95 12 l87 7 0 -114 0 -115 -18 -16 c-27 -25 -85 -46 -144 -53 l-53
-6 -42 11 c-52 14 -98 52 -123 102 l-20 38 0 67 c0 37 5 85 12 108 l12 41 52
52 51 51 44 10 c59 13 86 13 139 1z m-2192 -229 c67 -208 80 -249 76 -252 -1
-2 -31 -2 -67 0 l-64 4 -12 39 -12 40 -61 -3 -61 -3 -12 -35 -12 -35 -61 -3
c-34 -2 -62 1 -62 5 -1 4 30 99 67 211 l67 203 81 -3 80 -3 53 -165z m1792
-40 l0 -210 -63 0 -63 0 -70 105 -69 105 -3 -110 -3 -110 -60 0 -61 0 6 208 6
207 62 3 63 3 26 -43 c15 -24 45 -76 68 -115 23 -40 44 -73 47 -73 3 0 5 21 4
48 -2 26 -2 80 -1 120 l1 72 55 0 55 0 0 -210z m-500 -15 l0 -215 -65 0 -65 0
0 210 0 209 63 4 c34 2 63 4 65 5 1 1 2 -95 2 -213z m-959 110 c24 -52 46 -94
49 -95 3 0 27 43 53 95 l47 95 66 0 67 0 -7 -61 c-3 -34 -6 -131 -6 -215 l0
-154 -56 0 -55 0 3 110 c2 61 0 110 -3 110 -4 0 -22 -30 -40 -66 -19 -36 -41
-72 -50 -80 l-16 -14 -21 7 -22 8 -39 80 -40 80 0 -107 -1 -108 -55 0 -55 0 0
183 c0 100 3 192 6 205 l6 22 62 0 63 0 44 -95z m678 77 c19 -10 43 -34 53
-53 l19 -34 -4 -53 -4 -53 -19 -26 c-11 -15 -32 -35 -46 -46 l-26 -20 -72 -5
-71 -5 2 -55 3 -56 -65 1 -64 1 0 56 c1 31 2 126 3 211 l2 155 128 0 127 0 34
-18z m2101 -405 c0 -2 -12 -14 -27 -28 l-28 -24 24 28 c23 25 31 32 31 24z
m-2972 -144 c95 -27 312 -126 312 -141 0 -13 -38 -102 -43 -102 -2 0 -2 10 0
23 l4 22 -38 14 c-63 23 -70 23 -30 1 20 -11 37 -23 37 -25 0 -6 -40 10 -80
30 -16 8 -33 15 -37 15 -4 -1 22 -17 60 -36 66 -34 80 -50 53 -60 -11 -4 -217
57 -444 131 -7 3 -11 1 -8 -3 3 -5 23 -14 45 -22 l41 -13 -10 -12 c-6 -7 -25
-16 -43 -20 l-32 -7 40 -17 c46 -21 226 -67 335 -87 l75 -13 -69 5 c-79 7
-273 52 -359 84 -31 12 -66 33 -77 47 l-20 26 0 49 c0 60 21 102 63 129 l32
20 53 -6 c30 -4 93 -18 140 -32z m1461 21 c29 -21 60 -89 61 -132 0 -47 -26
-91 -64 -107 -66 -28 -405 -106 -450 -104 -11 1 -1 5 24 11 77 16 375 89 378
93 2 2 -18 3 -46 2 -27 -1 -47 -6 -45 -11 3 -5 0 -6 -8 -4 -8 3 -13 10 -12 15
1 5 -4 10 -12 10 -8 0 -12 -3 -10 -7 2 -4 -9 -7 -25 -6 -40 1 -26 12 61 46 41
16 69 29 64 30 -8 0 -239 -78 -353 -120 -18 -7 -39 -9 -47 -6 -23 8 -18 35 8
45 12 5 33 21 46 36 l23 28 -38 -7 c-22 -4 -51 -15 -65 -26 l-26 -18 -17 29
c-9 16 -14 34 -10 40 4 6 57 36 118 65 l112 54 109 29 c61 16 130 30 155 30
l46 1 23 -16z m-1001 -227 c34 -11 62 -24 62 -27 0 -12 -104 -32 -150 -28
l-45 3 2 29 c1 16 5 36 7 43 l6 13 27 -6 c16 -3 56 -15 91 -27z m403 -5 l22
-19 -5 -14 c-3 -8 -21 -20 -39 -26 -19 -6 -137 -49 -264 -96 -126 -46 -286
-101 -355 -122 -258 -76 -330 -105 -368 -149 l-22 -27 -20 11 c-25 14 -62 85
-58 112 2 12 15 30 30 41 l28 21 32 -15 33 -15 45 22 c67 33 865 292 906 294
7 0 22 -8 35 -18z m172 -188 c117 -36 231 -74 255 -85 l43 -18 45 6 44 6 15
-13 c21 -18 18 -59 -8 -105 -27 -48 -50 -55 -85 -23 -15 13 -45 32 -67 42 -59
27 -264 98 -390 136 -60 18 -126 41 -145 50 l-34 18 49 25 c28 14 54 26 58 27
4 0 103 -30 220 -66z m-140 -178 c37 -16 66 -31 64 -33 -19 -18 -615 -24 -691
-7 l-39 10 79 29 79 30 220 0 220 0 68 -29z m-430 -203 c-7 -2 -21 -2 -30 0
-10 3 -4 5 12 5 17 0 24 -2 18 -5z m325 0 c-10 -2 -26 -2 -35 0 -10 3 -2 5 17
5 19 0 27 -2 18 -5z"/>
<path d="M4262 5811 c-29 -10 -70 -32 -92 -50 l-40 -32 -30 16 c-32 16 -130
33 -130 22 0 -4 17 -15 38 -26 21 -11 63 -40 93 -64 l54 -44 33 5 32 4 0 27
c0 30 18 60 68 113 20 21 34 40 31 42 -2 3 -28 -3 -57 -13z"/>
<path d="M4561 5613 l-71 -36 -38 17 c-22 10 -52 16 -68 14 l-29 -3 55 -33
c30 -18 66 -41 80 -52 l25 -20 23 6 c12 4 22 12 22 19 0 8 23 39 51 69 l51 56
-15 0 c-8 0 -47 -16 -86 -37z"/>
<path d="M6271 4160 c0 -8 4 -24 9 -35 l9 -20 0 15 c0 8 -4 24 -9 35 l-9 20 0
-15z"/>
<path d="M6145 3880 c3 -5 21 -10 38 -9 l32 0 -20 9 c-28 12 -57 12 -50 0z"/>
<path d="M6201 3823 c19 -21 35 -39 36 -42 1 -2 10 5 20 15 l18 18 -22 -6 -22
-6 -6 17 c-3 9 -17 22 -32 28 l-27 13 35 -37z"/>
<path d="M572 3740 c0 -19 2 -27 5 -17 2 9 2 25 0 35 -3 9 -5 1 -5 -18z"/>
<path d="M563 3660 c0 -25 2 -35 4 -22 2 12 2 32 0 45 -2 12 -4 2 -4 -23z"/>
<path d="M4354 4241 c4 -6 16 -16 28 -22 l20 -11 -6 11 c-4 6 -16 16 -28 22
l-20 11 6 -11z"/>
<path d="M4410 4206 c0 -3 33 -29 73 -59 39 -29 112 -91 162 -138 49 -46 77
-69 62 -50 -43 52 -127 127 -216 192 -45 33 -81 57 -81 55z"/>
<path d="M2786 4050 l-14 -30 13 0 c7 0 19 -2 27 -3 7 -2 10 -2 5 0 -4 3 -4
10 -1 15 l7 11 -12 -7 -12 -8 5 26 c6 34 1 33 -18 -4z"/>
<path d="M1568 4633 c12 -2 30 -2 40 0 9 3 -1 5 -23 4 -22 0 -30 -2 -17 -4z"/>
<path d="M1343 4313 c9 -2 23 -2 30 0 6 3 -1 5 -18 5 -16 0 -22 -2 -12 -5z"/>
<path d="M1443 4313 c9 -2 23 -2 30 0 6 3 -1 5 -18 5 -16 0 -22 -2 -12 -5z"/>
<path d="M3975 4021 c-22 -24 -33 -41 -25 -35 8 5 18 9 23 9 7 0 50 66 45 69
-2 1 -21 -18 -43 -43z"/>
<path d="M3890 3858 l-24 -33 18 14 c16 13 41 51 33 51 -2 0 -14 -15 -27 -32z"/>
<path d="M3840 3790 c-12 -16 -19 -30 -16 -30 2 0 14 14 26 30 12 17 19 30 16
30 -2 0 -14 -13 -26 -30z"/>
<path d="M4861 2926 c2 -2 27 -6 54 -10 l50 -6 -20 9 c-19 9 -93 15 -84 7z"/>
<path d="M3970 2852 c0 -15 36 -42 54 -42 l18 0 -6 16 c-3 9 -6 20 -6 25 0 5
-13 9 -30 9 -16 0 -30 -4 -30 -8z"/>
<path d="M4963 3180 c0 -25 2 -35 4 -22 2 12 2 32 0 45 -2 12 -4 2 -4 -23z"/>
<path d="M4953 3095 c0 -22 2 -30 4 -17 2 12 2 30 0 40 -3 9 -5 -1 -4 -23z"/>
<path d="M4403 3033 c9 -2 23 -2 30 0 6 3 -1 5 -18 5 -16 0 -22 -2 -12 -5z"/>
<path d="M4113 3013 c9 -2 23 -2 30 0 6 3 -1 5 -18 5 -16 0 -22 -2 -12 -5z"/>
<path d="M3910 2987 c-36 -6 -58 -12 -50 -14 8 -1 51 3 95 11 44 7 67 14 50
14 -16 -1 -59 -5 -95 -11z"/>
<path d="M295 2690 l-30 -7 17 -7 17 -8 23 16 c24 17 20 18 -27 6z"/>
<path d="M4079 2357 c-52 -35 -97 -102 -120 -179 l-22 -71 9 -26 9 -26 22 -3
22 -3 40 40 c59 59 121 196 121 268 l0 23 -24 0 c-12 0 -38 -10 -57 -23z"/>
<path d="M2515 1274 c-10 -33 -18 -63 -19 -68 0 -4 16 -9 37 -10 20 0 37 2 37
6 0 21 -23 114 -30 122 -5 5 -16 -18 -25 -50z"/>
<path d="M3510 1270 l0 -60 33 0 c18 0 43 7 55 16 l22 15 0 28 c0 37 -28 61
-73 61 l-37 0 0 -60z"/>
<path d="M2660 822 c0 -14 114 -72 140 -72 8 1 -16 14 -55 31 -38 16 -73 35
-77 42 l-8 12 0 -13z"/>
<path d="M2861 726 c2 -2 15 -9 29 -15 l25 -12 -19 15 c-16 13 -49 24 -35 12z"/>
<path d="M4112 825 c-50 -15 -92 -41 -92 -56 l0 -11 37 7 c41 7 85 28 122 56
l24 19 -24 -1 c-13 0 -43 -6 -67 -14z m23 -17 c-40 -21 -95 -40 -95 -33 0 6
61 37 90 46 44 13 46 9 5 -13z"/>
<path d="M4215 730 l-20 -9 15 0 c8 0 24 4 35 9 l20 9 -15 0 c-8 0 -24 -4 -35
-9z"/>
<path d="M3155 665 c-3 -8 -7 -22 -10 -30 l-4 -15 20 0 20 0 -8 13 c-4 6 -6
20 -5 30 4 21 -7 23 -13 2z"/>
<path d="M3185 450 l-20 -9 15 0 c8 0 22 4 30 9 18 12 2 12 -25 0z"/>
<path d="M2895 386 c-38 -13 -63 -25 -55 -28 l15 -5 -30 -17 c-34 -19 -33 -19
87 19 l86 27 -5 14 c-7 18 -13 17 -98 -10z"/>
<path d="M2670 313 c0 -5 -18 -17 -41 -27 l-40 -18 14 -21 c19 -28 44 -33 51
-10 4 10 35 32 70 48 35 17 62 31 61 33 -2 2 -21 -2 -44 -9 l-40 -12 -16 13
c-8 7 -15 8 -15 3z"/>
<path d="M3569 483 l-14 -18 16 13 16 12 36 -15 c51 -21 59 -18 13 5 -48 24
-50 24 -67 3z"/>
<path d="M3935 350 c58 -26 150 -59 153 -56 5 6 -51 30 -112 50 -53 17 -73 20
-41 6z"/>
<path d="M4129 269 c16 -9 32 -22 35 -28 10 -16 32 -13 51 6 l17 17 -23 9
c-13 5 -43 11 -67 12 l-42 2 29 -18z m65 -20 c-8 -14 -24 -10 -24 6 l0 14 15
-5 c8 -4 12 -10 9 -15z"/>
</g>
</svg>
